<?xml version="1.0" encoding="utf-8"?>
<!-- Generator: Adobe Illustrator 27.7.0, SVG Export Plug-In . SVG Version: 6.00 Build 0)  -->
<svg version="1.1" id="Layer_1" xmlns="http://www.w3.org/2000/svg" xmlns:xlink="http://www.w3.org/1999/xlink" x="0px" y="0px"
	 viewBox="0 0 500.63 80.6" style="enable-background:new 0 0 500.63 80.6;" xml:space="preserve">
<g>
	<g>
		<path d="M31.92,57.77c1.05-2.05,1.7-4.03,1.95-5.95c0.25-1.91,0.38-3.97,0.38-6.15c0-1-0.02-2.04-0.07-3.11
			c-0.05-1.07-0.19-2.06-0.44-2.97c-0.25-0.91-0.66-1.71-1.23-2.39c-0.57-0.68-1.4-1.14-2.5-1.37c-1.18-0.23-2.27-0.15-3.25,0.24
			c-0.98,0.39-1.86,1.04-2.63,1.95c-0.59,0.64-0.89,1.41-0.89,2.32c-0.05,1.5-0.09,3.01-0.14,4.51c-0.05,1.5-0.09,2.99-0.14,4.44
			c-0.09,1.73,0.08,2.95,0.51,3.66c0.43,0.71,1.33,1.29,2.7,1.74c-0.41,1.05-1,1.93-1.78,2.63c-0.78,0.71-1.64,1.26-2.6,1.68
			c-0.96,0.41-1.97,0.65-3.04,0.72c-1.07,0.07-2.11-0.03-3.11-0.31c-0.64-0.14-1.3-0.33-1.98-0.58c-0.68-0.25-1.35-0.44-1.98-0.58
			c-0.64-0.14-1.28-0.17-1.91-0.1C9.13,58.22,8.51,58.5,7.92,59c-0.27-0.36-0.38-0.72-0.31-1.06c0.07-0.34,0.17-0.67,0.31-0.99
			c1.5-4.01,2.4-8.01,2.7-12c0.3-3.99,0.19-7.99-0.31-12c-0.23-1.46-0.63-2.38-1.2-2.77c-0.57-0.39-1.26-0.35-2.08,0.1
			c0-0.77,0.14-1.53,0.41-2.26c0.27-0.73,0.64-1.39,1.09-1.98c0.45-0.59,1-1.08,1.64-1.47c0.64-0.39,1.32-0.65,2.05-0.79
			c0.86-0.14,1.73-0.12,2.6,0.03c0.87,0.16,1.72,0.31,2.56,0.44c0.84,0.14,1.66,0.19,2.46,0.17c0.8-0.02,1.58-0.24,2.36-0.65
			l0.34,4.92c2.37-2.46,4.81-4.16,7.32-5.09c2.51-0.93,5.29-1.08,8.34-0.44c1.73,0.5,3.13,1.25,4.2,2.26c1.07,1,1.92,2.17,2.53,3.49
			c0.62,1.32,1.05,2.73,1.3,4.24c0.25,1.5,0.42,2.99,0.51,4.44c0,2.14-0.1,4.21-0.31,6.19c-0.2,1.98-0.26,3.75-0.17,5.3
			c0.09,1.55,0.45,2.83,1.06,3.83c0.61,1,1.74,1.57,3.38,1.71c-0.5,1.09-1.29,2.02-2.36,2.77c-1.07,0.75-2.26,1.32-3.56,1.71
			c-1.3,0.39-2.64,0.55-4.04,0.48c-1.39-0.07-2.63-0.38-3.73-0.92c-0.78-0.37-1.55-0.66-2.33-0.89
			C33.95,57.54,33.01,57.54,31.92,57.77z"/>
		<path d="M68.77,22.15c-0.32,4.7-0.48,9.11-0.48,13.23c0,4.13,0,8.24,0,12.34c0.09,1.64,0.45,2.95,1.09,3.93
			c0.64,0.98,1.82,1.52,3.56,1.61c-0.5,1.14-1.2,2.06-2.09,2.77c-0.89,0.71-1.86,1.23-2.91,1.57c-1.05,0.34-2.15,0.54-3.32,0.58
			c-1.16,0.04-2.29-0.02-3.38-0.2c-1.73-0.37-3.32-0.56-4.75-0.58c-1.43-0.02-2.81,0.26-4.14,0.85c-0.05-1,0.07-1.93,0.34-2.77
			c0.27-0.84,0.58-1.7,0.92-2.56c0.34-0.86,0.66-1.79,0.96-2.77c0.3-0.98,0.45-2.13,0.45-3.45c0.04-0.87,0.11-1.98,0.2-3.35
			c0.09-1.37,0.16-2.79,0.2-4.27c0.05-1.48,0.05-2.94,0-4.38c-0.05-1.44-0.2-2.68-0.48-3.73c-0.27-1.05-0.67-1.82-1.2-2.32
			c-0.52-0.5-1.22-0.55-2.08-0.14c0.32-1.37,0.89-2.55,1.71-3.56c0.82-1,1.82-1.82,3.01-2.46c0.41-0.23,0.85-0.38,1.33-0.44
			c0.48-0.07,0.95-0.1,1.4-0.1c1.64,0.37,3.34,0.57,5.09,0.62C65.98,22.61,67.5,22.47,68.77,22.15z M54.55,17.98
			c0.64-2.1,1.46-4,2.46-5.71c1-1.71,2.42-3.02,4.24-3.93c1.14-0.64,2.29-0.91,3.45-0.82c1.16,0.09,2.15,0.42,2.97,0.99
			c0.82,0.57,1.38,1.34,1.68,2.32c0.3,0.98,0.17,2.06-0.38,3.25c-0.91,1.5-2.11,2.51-3.59,3.01c-1.48,0.5-2.93,0.78-4.34,0.82
			c-1,0.09-2.03,0.13-3.08,0.1C56.92,17.99,55.78,17.98,54.55,17.98z"/>
		<path d="M108.22,22.01c0.18,1.28,0.23,2.59,0.14,3.93c-0.09,1.35-0.35,2.63-0.79,3.86c-0.43,1.23-1.05,2.33-1.85,3.28
			c-0.8,0.96-1.79,1.71-2.98,2.26c-0.64,0.27-1.36,0.41-2.15,0.41c-0.8,0-1.58-0.1-2.36-0.31c-0.78-0.21-1.52-0.5-2.22-0.89
			c-0.71-0.39-1.29-0.83-1.74-1.33c-0.73-0.64-1.56-0.96-2.5-0.96c-0.93,0-1.77,0.23-2.5,0.68c-1.5,0.78-2.61,1.8-3.32,3.08
			c-0.71,1.28-1.09,2.59-1.16,3.93c-0.07,1.34,0.18,2.67,0.75,3.97c0.57,1.3,1.37,2.37,2.39,3.21c1.03,0.84,2.28,1.37,3.76,1.57
			c1.48,0.2,3.11-0.1,4.89-0.92c0.04-0.04,0.08-0.07,0.1-0.07c0.02,0,0.06-0.02,0.1-0.07c1.28-1,2.61-1.7,4-2.09
			c1.39-0.39,2.81-0.35,4.27,0.1c1.05,0.36,1.97,0.74,2.77,1.13c0.8,0.39,1.47,0.99,2.02,1.81c-0.68,0.09-1.35,0.38-1.98,0.85
			c-0.64,0.48-1.27,1.06-1.88,1.74c-0.62,0.68-1.21,1.39-1.78,2.12c-0.57,0.73-1.13,1.35-1.68,1.85c-1.96,1.73-3.98,2.96-6.05,3.69
			c-2.08,0.73-4.43,0.98-7.08,0.75c-2.87-0.05-5.41-0.7-7.62-1.95c-2.21-1.25-4.05-2.88-5.5-4.89c-1.46-2.01-2.54-4.26-3.25-6.77
			c-0.71-2.51-0.95-5.01-0.72-7.52c0.23-2.51,0.92-4.89,2.08-7.15c1.16-2.26,2.84-4.16,5.03-5.71c2.05-1.64,4.21-2.76,6.49-3.35
			c2.28-0.59,4.69-0.73,7.25-0.41c1.46,0.32,2.79,0.85,4,1.61c1.21,0.75,2.39,1.33,3.56,1.74c1.16,0.41,2.35,0.44,3.56,0.1
			C105.5,24.99,106.81,23.88,108.22,22.01z"/>
		<path d="M145.49,43.35c-1.78,0.18-3.62,0.3-5.54,0.34c-1.91,0.05-3.84,0.07-5.78,0.07c-1.94,0-3.85-0.01-5.74-0.03
			c-1.89-0.02-3.73-0.01-5.5,0.03c0.14,1.64,0.71,2.89,1.71,3.76c1,0.87,2.19,1.45,3.56,1.74c1.37,0.3,2.79,0.36,4.27,0.2
			c1.48-0.16,2.77-0.44,3.86-0.85c0.86-0.09,1.85,0.09,2.94,0.55c1.09,0.46,2.15,1.07,3.18,1.85c1.03,0.78,1.94,1.64,2.73,2.6
			c0.8,0.96,1.33,1.89,1.61,2.8c-1.37-0.23-2.76-0.25-4.17-0.07c-1.41,0.18-2.81,0.44-4.21,0.79c-1.39,0.34-2.75,0.69-4.07,1.06
			c-1.32,0.36-2.6,0.62-3.83,0.75c-2.37,0.23-4.61,0.16-6.7-0.21c-2.1-0.37-3.99-1.05-5.67-2.05c-1.69-1-3.15-2.3-4.38-3.9
			c-1.23-1.59-2.16-3.49-2.8-5.68c-0.68-2.46-0.96-4.98-0.82-7.56c0.14-2.57,0.66-5.03,1.57-7.35c1-2.19,2.29-4.03,3.86-5.54
			c1.57-1.5,3.3-2.67,5.2-3.49c1.89-0.82,3.92-1.32,6.09-1.5c2.16-0.18,4.36-0.09,6.6,0.27c2.37,0.41,4.4,1.37,6.09,2.87
			c1.69,1.5,3.04,3.28,4.07,5.33c1.03,2.05,1.7,4.25,2.02,6.6C145.94,39.1,145.9,41.29,145.49,43.35z M134.82,36.3
			c-0.05-1.28-0.33-2.33-0.85-3.18c-0.52-0.84-1.2-1.47-2.02-1.88c-0.82-0.41-1.69-0.6-2.6-0.58c-0.91,0.02-1.78,0.25-2.6,0.68
			c-0.82,0.43-1.52,1.07-2.08,1.91c-0.57,0.84-0.88,1.86-0.92,3.04H134.82z"/>
		<path d="M148.02,60.78c0.73-1.09,1.79-1.98,3.18-2.67c1.39-0.68,2.91-1.07,4.55-1.16c1.64-0.09,3.27,0.16,4.89,0.75
			c1.62,0.59,3.04,1.62,4.27,3.08c0.96,1.23,1.89,1.97,2.8,2.22c0.91,0.25,1.71,0.05,2.39-0.61c0.68-0.66,1.21-1.73,1.57-3.21
			c0.36-1.48,0.48-3.34,0.34-5.57c-2.23,0.64-4.24,0.98-6.02,1.03c-1.78,0.05-3.67-0.11-5.67-0.48c-2.1-0.14-3.91-0.71-5.44-1.71
			c-1.53-1-2.77-2.24-3.73-3.73c-0.96-1.48-1.64-3.13-2.05-4.96c-0.41-1.82-0.57-3.66-0.48-5.5c0.09-1.85,0.43-3.62,1.03-5.33
			c0.59-1.71,1.44-3.18,2.53-4.41c1.32-1.41,2.88-2.56,4.68-3.45c1.8-0.89,3.68-1.5,5.64-1.85c1.96-0.34,3.94-0.44,5.95-0.31
			c2.01,0.14,3.87,0.53,5.61,1.16c1.87-1.23,3.81-1.87,5.81-1.91c2.01-0.05,4.1,0.11,6.29,0.48c-0.41,1.23-0.71,2.79-0.89,4.68
			c-0.18,1.89-0.28,3.86-0.31,5.91c-0.02,2.05-0.01,4.09,0.03,6.12c0.05,2.03,0.07,3.82,0.07,5.37c0.09,5.06-0.15,9.45-0.72,13.16
			c-0.57,3.71-1.65,6.76-3.25,9.13c-1.6,2.37-3.78,4.06-6.56,5.06c-2.78,1-6.29,1.28-10.53,0.82c-1.91-0.32-3.48-0.84-4.68-1.57
			c-1.21-0.73-2.21-1.55-3.01-2.46c-0.8-0.91-1.46-1.85-1.98-2.8c-0.52-0.96-1.06-1.84-1.61-2.63c-0.55-0.8-1.19-1.44-1.91-1.91
			C150.09,61.02,149.16,60.78,148.02,60.78z M165.86,44.51c1.64,0.27,3,0.02,4.07-0.75c1.07-0.78,1.82-1.74,2.26-2.91
			c0.43-1.16,0.51-2.35,0.24-3.56c-0.27-1.21-0.91-2.11-1.91-2.7c-0.5-0.32-1.14-0.62-1.91-0.89c-0.78-0.27-1.58-0.42-2.43-0.44
			c-0.85-0.02-1.68,0.15-2.5,0.51c-0.82,0.36-1.55,1.03-2.19,1.98c-0.64,0.82-1.04,1.74-1.2,2.77c-0.16,1.03-0.07,1.98,0.27,2.87
			c0.34,0.89,0.95,1.64,1.81,2.26C163.24,44.27,164.41,44.55,165.86,44.51z"/>
		<path d="M204.63,26.59c0.45-0.87,1.06-1.62,1.81-2.26c0.75-0.64,1.58-1.2,2.5-1.68c0.91-0.48,1.88-0.85,2.91-1.13
			c1.03-0.27,2.02-0.48,2.97-0.61c2.28-0.14,4.22,0.23,5.81,1.09c1.6,0.87,2.89,2.05,3.9,3.56c1,1.5,1.77,3.25,2.29,5.23
			c0.52,1.98,0.88,4,1.06,6.05c0.18,2.05,0.24,4.07,0.17,6.05c-0.07,1.98-0.19,3.73-0.38,5.23c0.09,0.78,0.42,1.2,0.99,1.26
			c0.57,0.07,1.1-0.01,1.61-0.24c0.09,1.55-0.19,2.92-0.85,4.1c-0.66,1.19-1.55,2.15-2.67,2.91c-1.12,0.75-2.36,1.25-3.73,1.5
			c-1.37,0.25-2.73,0.19-4.1-0.17c-0.64-0.18-1.28-0.43-1.91-0.75c-0.64-0.32-1.3-0.61-1.98-0.89c-0.78-0.46-1.43-0.73-1.95-0.82
			c-0.52-0.09-1.17-0.18-1.95-0.27c1.09-0.96,1.98-2.2,2.67-3.73c0.68-1.53,1.15-3.16,1.4-4.89c0.25-1.73,0.27-3.46,0.07-5.2
			c-0.2-1.73-0.65-3.33-1.33-4.79c-0.5-1.18-1.24-2.01-2.22-2.46c-0.98-0.45-2.08-0.64-3.32-0.55c-1.05,0.09-1.87,0.48-2.46,1.16
			c-0.59,0.68-1,1.48-1.23,2.39c-0.32,1.6-0.54,3.19-0.65,4.79c-0.11,1.6,0.01,3.21,0.38,4.85c0.14,0.91,0.53,1.49,1.2,1.74
			c0.66,0.25,1.4,0.38,2.22,0.38c-0.09,1.14-0.43,2.21-1.03,3.21c-0.59,1-1.21,1.85-1.85,2.53c-1.09,1.19-2.3,2.07-3.62,2.67
			c-1.32,0.59-2.78,0.78-4.38,0.55c-0.59-0.09-1.2-0.18-1.81-0.27c-0.62-0.09-1.22-0.18-1.81-0.27c-0.5-0.09-0.92-0.15-1.27-0.17
			c-0.34-0.02-0.66-0.02-0.96,0c-0.3,0.02-0.63,0.09-0.99,0.2c-0.36,0.11-0.8,0.26-1.3,0.44c-0.05-0.86,0.07-1.69,0.34-2.46
			c0.27-0.77,0.64-1.5,1.09-2.19c0.64-1.14,0.96-2.44,0.96-3.9c0.09-3.6,0.19-7.19,0.31-10.77c0.11-3.58,0.22-7.19,0.31-10.84
			c0-1.28,0.02-2.65,0.07-4.14c0.05-1.48-0.01-2.76-0.17-3.83c-0.16-1.07-0.47-1.8-0.92-2.19c-0.46-0.39-1.19-0.1-2.19,0.85
			c-0.05-1.32,0.33-2.51,1.13-3.56c0.8-1.05,1.79-1.87,2.97-2.46c1.18-0.59,2.47-0.89,3.86-0.89c1.39,0,2.63,0.36,3.73,1.09
			c0.96,0.23,1.9,0.27,2.84,0.14c0.93-0.14,1.9-0.64,2.91-1.5c-0.32,1.46-0.58,2.83-0.79,4.1c-0.21,1.28-0.35,2.54-0.45,3.79
			c-0.09,1.25-0.16,2.52-0.2,3.8C204.59,23.7,204.59,25.09,204.63,26.59z"/>
		<path d="M250.92,21.88c3.33,0.09,6.34,0.78,9.02,2.05c2.69,1.28,4.89,3.01,6.6,5.2c1.71,2.19,2.88,4.74,3.52,7.66
			c0.64,2.92,0.59,6.04-0.14,9.37c-0.64,2.73-1.76,5.11-3.35,7.11c-1.6,2.01-3.65,3.51-6.15,4.51c-2.51,1-5.04,1.62-7.59,1.85
			c-2.55,0.23-5.13-0.02-7.73-0.75c-3.19-0.96-5.89-2.47-8.1-4.55c-2.21-2.07-3.68-4.75-4.41-8.03c-0.41-2.05-0.57-4.09-0.48-6.12
			c0.09-2.03,0.45-4.04,1.09-6.05c1.46-4.19,3.75-7.33,6.87-9.4C243.21,22.64,246.82,21.69,250.92,21.88z M259.13,40.2
			c-0.23-1.28-0.65-2.39-1.26-3.35c-0.62-0.96-1.33-1.73-2.15-2.32c-0.82-0.59-1.68-0.98-2.56-1.16c-0.89-0.18-1.74-0.18-2.56,0
			c-0.87,0.05-1.63,0.27-2.29,0.68c-0.66,0.41-1.25,0.9-1.78,1.47c-0.53,0.57-0.95,1.21-1.26,1.91c-0.32,0.71-0.57,1.38-0.75,2.02
			c-0.23,0.96-0.24,1.91-0.03,2.87c0.21,0.96,0.55,1.82,1.03,2.6c0.48,0.78,1.08,1.45,1.81,2.02c0.73,0.57,1.55,0.95,2.46,1.13
			c1.18,0.23,2.38,0.18,3.59-0.14c1.21-0.32,2.27-0.84,3.18-1.57c0.91-0.73,1.62-1.63,2.12-2.7
			C259.15,42.58,259.31,41.43,259.13,40.2z"/>
		<path d="M306.58,22.63c0.18,0.96,0.21,2.09,0.07,3.39c-0.14,1.3-0.44,2.53-0.92,3.69c-0.48,1.16-1.13,2.14-1.95,2.94
			c-0.82,0.8-1.82,1.2-3.01,1.2c-0.68-0.09-1.36-0.19-2.02-0.31c-0.66-0.11-1.31-0.28-1.95-0.51c-0.55-0.23-1.08-0.43-1.61-0.62
			c-0.52-0.18-1.04-0.34-1.54-0.48c-1.28-0.45-2.5-0.68-3.66-0.68s-2.11,0.16-2.84,0.48c-0.73,0.32-1.19,0.79-1.37,1.4
			c-0.18,0.62,0.09,1.29,0.82,2.02c1.55,0.41,3.19,0.65,4.92,0.72c1.73,0.07,3.33,0.17,4.79,0.31c1.87-0.09,3.58,0.11,5.13,0.62
			c1.55,0.5,2.87,1.22,3.96,2.15c1.1,0.94,1.92,2.08,2.46,3.42c0.55,1.34,0.75,2.84,0.61,4.48c-0.14,1.5-0.48,3.03-1.03,4.58
			c-0.55,1.55-1.45,2.94-2.7,4.17c-1.25,1.23-2.93,2.22-5.03,2.97c-2.1,0.75-4.79,1.1-8.07,1.06c-2.23-0.14-4.4-0.41-6.49-0.82
			c-2.1-0.41-3.99-0.73-5.68-0.96c-1.69-0.23-3.13-0.26-4.34-0.1c-1.21,0.16-2.04,0.69-2.5,1.61c-0.23-1.97-0.23-3.82,0-5.54
			c0.23-1.72,0.73-3.16,1.51-4.33c0.77-1.16,1.83-1.94,3.18-2.33c1.34-0.39,3.02-0.24,5.03,0.44c0.64,0.23,1.28,0.48,1.91,0.75
			c0.64,0.27,1.28,0.53,1.91,0.75c1,0.36,1.99,0.64,2.97,0.82c0.98,0.18,1.99,0.21,3.04,0.07c0.87,0.05,1.6-0.09,2.19-0.41
			c0.59-0.32,0.96-0.69,1.09-1.12c0.14-0.43-0.01-0.84-0.44-1.23c-0.43-0.39-1.2-0.65-2.29-0.78c-0.96-0.23-1.93-0.4-2.91-0.51
			c-0.98-0.11-1.95-0.26-2.91-0.44c-1.19-0.18-2.43-0.39-3.73-0.61c-1.3-0.23-2.53-0.57-3.69-1.02c-1.16-0.45-2.22-1.06-3.18-1.8
			c-0.96-0.75-1.66-1.78-2.12-3.1c-0.64-1.59-0.97-3.17-0.99-4.74c-0.02-1.57,0.23-3.04,0.75-4.41c0.52-1.37,1.3-2.61,2.33-3.73
			c1.03-1.12,2.29-2.02,3.79-2.7c4.97-2.32,10.01-2.23,15.11,0.27c2.05,0.91,4.07,1.31,6.05,1.2
			C303.26,24.74,305.03,24,306.58,22.63z"/>
		<path d="M325.45,23.52c0.73-0.09,1.48-0.14,2.26-0.14c0.78,0,1.56-0.08,2.36-0.24c0.8-0.16,1.57-0.47,2.32-0.92
			c0.75-0.45,1.45-1.18,2.09-2.19c0.36,1.37,0.52,2.6,0.48,3.69c-0.05,1.09-0.17,2.08-0.38,2.97c-0.2,0.89-0.44,1.7-0.72,2.43
			c-0.27,0.73-0.47,1.43-0.58,2.09c-0.11,0.66-0.1,1.3,0.03,1.91c0.14,0.62,0.52,1.24,1.16,1.88c-0.78-0.05-1.49-0.22-2.15-0.51
			c-0.66-0.3-1.32-0.6-1.98-0.92c-0.66-0.32-1.35-0.6-2.05-0.85c-0.71-0.25-1.49-0.38-2.36-0.38c-0.05,0.87-0.1,1.87-0.17,3.01
			c-0.07,1.14-0.11,2.31-0.14,3.52c-0.02,1.21-0.03,2.41-0.03,3.59c0,1.19,0.06,2.22,0.17,3.11c0.11,0.89,0.27,1.6,0.48,2.12
			c0.2,0.52,0.49,0.74,0.85,0.65c1.41-0.27,2.69-0.33,3.83-0.17c1.14,0.16,2.11,0.58,2.91,1.26c0.8,0.68,1.45,1.69,1.95,3.01
			c0.5,1.32,0.84,3.01,1.03,5.06c-0.96-0.73-1.88-1.16-2.77-1.3c-0.89-0.14-1.79-0.1-2.7,0.1c-0.91,0.2-1.81,0.5-2.7,0.89
			c-0.89,0.39-1.81,0.76-2.77,1.13c-0.96,0.36-1.95,0.65-2.97,0.85c-1.03,0.2-2.11,0.19-3.25-0.03c-1.46-0.32-2.61-1.05-3.45-2.19
			c-0.84-1.14-1.47-2.53-1.88-4.17c-0.41-1.64-0.65-3.43-0.72-5.37c-0.07-1.94-0.07-3.85,0-5.74c0.07-1.89,0.17-3.68,0.31-5.37
			c0.14-1.69,0.2-3.08,0.2-4.17c-0.14-0.05-0.44-0.08-0.92-0.1c-0.48-0.02-1.03-0.02-1.64,0c-0.62,0.02-1.22,0.07-1.81,0.14
			c-0.59,0.07-1.07,0.17-1.43,0.31c0-0.36,0.09-0.73,0.27-1.09c0.18-0.36,0.35-0.85,0.51-1.47c0.16-0.62,0.3-1.41,0.41-2.39
			c0.11-0.98,0.12-2.22,0.03-3.73c0.87,0.09,1.74,0.11,2.63,0.07c0.89-0.05,1.67-0.07,2.36-0.07c0-0.64,0.02-1.32,0.07-2.05
			c0.04-0.73,0.04-1.41,0-2.05c-0.05-0.64-0.2-1.2-0.45-1.68c-0.25-0.48-0.67-0.79-1.26-0.92c0.32-1.14,0.98-1.96,1.98-2.46
			c1-0.5,2.19-0.86,3.56-1.09c1.37-0.23,2.84-0.42,4.41-0.58c1.57-0.16,3.06-0.47,4.48-0.92c-0.32,0.87-0.6,1.84-0.85,2.91
			c-0.25,1.07-0.45,2.14-0.58,3.21c-0.14,1.07-0.24,2.09-0.31,3.04C325.49,22.15,325.45,22.93,325.45,23.52z"/>
		<path d="M372.22,22.01c0.18,1.28,0.23,2.59,0.14,3.93c-0.09,1.35-0.35,2.63-0.79,3.86c-0.43,1.23-1.05,2.33-1.85,3.28
			c-0.8,0.96-1.79,1.71-2.98,2.26c-0.64,0.27-1.36,0.41-2.15,0.41c-0.8,0-1.58-0.1-2.36-0.31c-0.78-0.21-1.52-0.5-2.22-0.89
			c-0.71-0.39-1.29-0.83-1.74-1.33c-0.73-0.64-1.56-0.96-2.5-0.96c-0.93,0-1.77,0.23-2.5,0.68c-1.5,0.78-2.61,1.8-3.32,3.08
			c-0.71,1.28-1.09,2.59-1.16,3.93c-0.07,1.34,0.18,2.67,0.75,3.97c0.57,1.3,1.37,2.37,2.39,3.21c1.03,0.84,2.28,1.37,3.76,1.57
			c1.48,0.2,3.11-0.1,4.89-0.92c0.04-0.04,0.08-0.07,0.1-0.07c0.02,0,0.06-0.02,0.1-0.07c1.28-1,2.61-1.7,4-2.09
			c1.39-0.39,2.81-0.35,4.27,0.1c1.05,0.36,1.97,0.74,2.77,1.13c0.8,0.39,1.47,0.99,2.02,1.81c-0.68,0.09-1.35,0.38-1.98,0.85
			c-0.64,0.48-1.27,1.06-1.88,1.74c-0.62,0.68-1.21,1.39-1.78,2.12c-0.57,0.73-1.13,1.35-1.68,1.85c-1.96,1.73-3.98,2.96-6.05,3.69
			c-2.08,0.73-4.43,0.98-7.08,0.75c-2.87-0.05-5.41-0.7-7.62-1.95c-2.21-1.25-4.05-2.88-5.5-4.89c-1.46-2.01-2.54-4.26-3.25-6.77
			c-0.71-2.51-0.95-5.01-0.72-7.52c0.23-2.51,0.92-4.89,2.08-7.15c1.16-2.26,2.84-4.16,5.03-5.71c2.05-1.64,4.21-2.76,6.49-3.35
			c2.28-0.59,4.69-0.73,7.25-0.41c1.46,0.32,2.79,0.85,4,1.61c1.21,0.75,2.39,1.33,3.56,1.74c1.16,0.41,2.35,0.44,3.56,0.1
			C369.5,24.99,370.81,23.88,372.22,22.01z"/>
		<path d="M391.3,10.73c-0.37,1.73-0.63,3.67-0.79,5.81c-0.16,2.14-0.25,4.36-0.27,6.67c-0.02,2.3,0,4.64,0.07,7.01
			c0.07,2.37,0.1,4.67,0.1,6.91v12.03c0.09,1.28,0.43,2.13,1.03,2.56c0.59,0.43,1.43,0.19,2.53-0.72c0.04,1.32-0.23,2.56-0.82,3.73
			c-0.59,1.16-1.34,2.13-2.26,2.91c-1.69,0.87-3.21,1.3-4.58,1.3s-2.7-0.15-4-0.44c-1.3-0.3-2.61-0.58-3.93-0.85
			c-1.32-0.27-2.73-0.25-4.24,0.07c0-0.64,0.17-1.27,0.51-1.88c0.34-0.62,0.73-1.22,1.16-1.81c0.43-0.59,0.82-1.2,1.16-1.81
			c0.34-0.62,0.51-1.24,0.51-1.88c0.27-1.64,0.5-3.65,0.68-6.02c0.18-2.37,0.31-4.88,0.38-7.52c0.07-2.64,0.06-5.31-0.03-8
			c-0.09-2.69-0.3-5.17-0.61-7.45c-0.27-2.42-0.8-3.89-1.57-4.41c-0.78-0.52-1.5-0.49-2.19,0.1c0.23-0.91,0.64-1.75,1.23-2.53
			c0.59-0.77,1.3-1.44,2.12-1.98c0.82-0.55,1.7-0.95,2.63-1.2c0.93-0.25,1.83-0.35,2.7-0.31c1.6,0.18,3.11,0.35,4.55,0.51
			C388.8,11.68,390.11,11.41,391.3,10.73z"/>
		<path d="M433.35,22.42c-0.23,5.11-0.33,9.62-0.31,13.54c0.02,3.92,0.26,7.59,0.72,11.01c0.04,1.14,0.31,2.12,0.79,2.94
			c0.48,0.82,1.38,1.34,2.7,1.57c-0.96,1.78-2.24,3.29-3.86,4.55c-1.61,1.25-3.33,2.27-5.14,3.04c-0.82,0.27-1.56,0.34-2.24,0.2
			c-0.68-0.14-1.29-0.39-1.84-0.75c-0.54-0.37-1.03-0.82-1.46-1.37c-0.43-0.55-0.85-1.14-1.26-1.78c-2.32,1.64-4.77,2.86-7.35,3.66
			c-2.58,0.8-5.25,0.76-8.03-0.1c-2.23-0.64-4.1-1.68-5.61-3.11c-1.51-1.44-2.58-3.34-3.21-5.71c-0.37-1.32-0.57-2.81-0.62-4.48
			c-0.05-1.66-0.03-3.34,0.03-5.03c0.07-1.69,0.15-3.3,0.24-4.85c0.09-1.55,0.05-2.87-0.14-3.97c-0.18-1.09-0.54-1.87-1.06-2.32
			c-0.52-0.45-1.33-0.43-2.43,0.07c-0.05-1.14,0.23-2.14,0.82-3.01c0.59-0.86,1.34-1.55,2.26-2.05c0.91-0.5,1.9-0.83,2.97-0.99
			c1.07-0.16,2.06-0.15,2.97,0.03c0.82,0.09,1.48,0.19,1.98,0.31c0.5,0.11,0.98,0.2,1.44,0.27c0.45,0.07,0.92,0.07,1.4,0
			c0.48-0.07,1.06-0.22,1.74-0.44L408.05,40c-0.05,1.96,0.2,3.56,0.75,4.79c0.55,1.23,1.24,2.17,2.08,2.8
			c0.84,0.64,1.77,1.02,2.77,1.13c1,0.11,1.95,0.02,2.84-0.27c0.89-0.3,1.66-0.75,2.33-1.37c0.66-0.61,1.08-1.33,1.26-2.15
			c0.09-0.18,0.14-0.35,0.14-0.51c0-0.16,0.02-0.33,0.07-0.51c0.05-1.32,0.07-2.47,0.07-3.45c0-0.98,0-1.93,0-2.84
			c0-0.91-0.01-1.87-0.03-2.87c-0.02-1-0.03-2.21-0.03-3.62c-0.73-1.14-1.54-1.88-2.43-2.22c-0.89-0.34-1.61-0.22-2.15,0.38
			c0.14-1,0.48-1.92,1.03-2.77c0.55-0.84,1.22-1.54,2.02-2.08c0.8-0.55,1.68-0.95,2.66-1.2c0.98-0.25,1.94-0.33,2.89-0.24
			c1.18,0.14,2.12,0.23,2.82,0.27c0.7,0.05,1.34,0.06,1.9,0.03c0.57-0.02,1.17-0.1,1.8-0.24S432.31,22.7,433.35,22.42z"/>
		<path d="M439.85,18.39c-0.87-0.04-1.57-0.31-2.12-0.79c-0.55-0.48-0.98-1.06-1.3-1.74c-0.32-0.68-0.5-1.45-0.55-2.29
			c-0.05-0.84,0-1.68,0.14-2.5c0.32,0.41,0.81,0.66,1.47,0.75c0.66,0.09,1.41,0.06,2.26-0.1c0.84-0.16,1.78-0.42,2.8-0.79
			c1.03-0.36,2.08-0.82,3.18-1.37c0.64-0.27,1.3-0.49,1.98-0.65c0.68-0.16,1.37-0.22,2.05-0.17c1.41,0.05,2.26,0.82,2.53,2.32
			c0.04,0.32,0.07,0.62,0.07,0.89c0,0.27,0,0.57,0,0.89v13.26c1.55-1.46,3.34-2.51,5.37-3.15c2.03-0.64,4.07-0.83,6.12-0.58
			c2.05,0.25,4,0.96,5.85,2.12c1.85,1.16,3.38,2.82,4.61,4.96c1.28,2.6,2.07,5.26,2.39,8c0.32,2.73,0.09,5.54-0.68,8.41
			c-0.55,1.64-1.15,3.16-1.81,4.55c-0.66,1.39-1.46,2.61-2.39,3.66c-0.93,1.05-2.05,1.91-3.35,2.6c-1.3,0.68-2.84,1.16-4.61,1.44
			c-0.96,0.14-1.97,0.15-3.04,0.03c-1.07-0.11-2.14-0.32-3.21-0.61c-1.07-0.3-2.1-0.69-3.08-1.2c-0.98-0.5-1.86-1.09-2.63-1.78
			c-0.64,1.09-1.47,2.04-2.5,2.84c-1.03,0.8-2.2,1.38-3.52,1.74c-1.32,0.36-2.75,0.47-4.27,0.31c-1.53-0.16-3.07-0.65-4.61-1.47
			c1.09-0.91,1.94-2.31,2.53-4.21c0.59-1.89,1-4.07,1.23-6.53c0.23-2.46,0.32-5.07,0.27-7.83c-0.05-2.76-0.14-5.46-0.27-8.1
			c-0.14-2.64-0.31-5.09-0.51-7.35C440.02,21.7,439.89,19.85,439.85,18.39z M452.36,41.43c0,1.23,0.07,2.1,0.21,2.6
			c0.14,0.5,0.36,0.87,0.68,1.09c0.96,0.91,1.99,1.54,3.11,1.88c1.12,0.34,2.31,0.33,3.59-0.03c1.41-0.55,2.43-1.46,3.04-2.73
			c0.62-1.28,0.88-2.62,0.79-4.03c-0.09-1.41-0.5-2.72-1.23-3.93c-0.73-1.21-1.76-2.02-3.08-2.43c-1.05-0.32-2.01-0.32-2.87,0
			c-0.87,0.32-1.66,0.87-2.39,1.64C452.65,37.17,452.04,39.15,452.36,41.43z"/>
	</g>
	<g>
		<g>
			<g>
				<g>
					<g>
						<g>
							<g>
								<g>
									<path d="M484.51,9.36c4.25,0,7.69,3.44,7.69,7.69s-3.44,7.69-7.69,7.69c-4.25,0-7.69-3.44-7.69-7.69
										S480.26,9.36,484.51,9.36 M484.51,7.96c-5.01,0-9.09,4.08-9.09,9.09c0,5.01,4.08,9.09,9.09,9.09
										c5.01,0,9.09-4.08,9.09-9.09C493.6,12.04,489.52,7.96,484.51,7.96L484.51,7.96z"/>
								</g>
							</g>
						</g>
					</g>
				</g>
			</g>
		</g>
		<g>
			<g>
				<g>
					<g>
						<g>
							<g>
								<g>
									<path d="M480.54,12.17h4.67c2.13,0,3.23,0.98,3.23,2.64c0,1.87-1.3,2.35-1.61,2.46v0.03c0.59,0.08,1.45,0.52,1.45,2.07
										c0,1.14,0.16,2.18,0.53,2.57h-1.83c-0.26-0.42-0.26-0.96-0.26-1.44c0-1.79-0.37-2.59-1.94-2.59h-2.52v4.02h-1.71V12.17z
										 M482.25,16.61h2.8c1.08,0,1.67-0.53,1.67-1.56c0-1.24-0.81-1.49-1.7-1.49h-2.78V16.61z"/>
								</g>
							</g>
						</g>
					</g>
				</g>
				<g>
					<g>
						<g>
							<g>
								<g>
									<path d="M487.19,21.57h1c-0.25-0.69-0.29-1.62-0.29-2.21c0-1.35-0.71-1.65-1.13-1.71l-0.31-0.05v-0.57l0.24-0.11
										c0.9-0.32,1.37-1.05,1.37-2.12c0-1.88-1.56-2.27-2.87-2.27h-4.3v9.04h0.98v-4.03h2.88c1.92,0,2.31,1.13,2.31,2.95
										C487.07,20.87,487.07,21.26,487.19,21.57z M485.05,16.98h-3.17V13.2h3.14c1.37,0,2.06,0.63,2.06,1.85
										C487.09,16.28,486.35,16.98,485.05,16.98z"/>
								</g>
							</g>
						</g>
					</g>
				</g>
			</g>
		</g>
	</g>
</g>
</svg>
